<?xml version="1.0" encoding="utf-8"?>
<!-- Generator: Adobe Illustrator 18.0.0, SVG Export Plug-In . SVG Version: 6.00 Build 0)  -->
<!DOCTYPE svg PUBLIC "-//W3C//DTD SVG 1.1//EN" "http://www.w3.org/Graphics/SVG/1.1/DTD/svg11.dtd">
<svg version="1.1" id="Layer_1" xmlns="http://www.w3.org/2000/svg" xmlns:xlink="http://www.w3.org/1999/xlink" x="0px" y="0px"
	 width="841.9px" height="595.3px" viewBox="0 0 841.9 595.3" enable-background="new 0 0 841.9 595.3" xml:space="preserve">
<g>
	<linearGradient id="SVGID_1_" gradientUnits="userSpaceOnUse" x1="420.945" y1="1.6226" x2="420.945" y2="595.6215">
		<stop  offset="0" style="stop-color:#533494"/>
		<stop  offset="1" style="stop-color:#F1729E"/>
	</linearGradient>
	<rect fill="url(#SVGID_1_)" width="841.9" height="595.2"/>
	<g>
		<g>
			<g>
				<path fill="#FAF6B9" d="M60.8,61.5c4.5,0,4.5-7,0-7S56.3,61.5,60.8,61.5L60.8,61.5z"/>
			</g>
			<g>
				<path fill="#FAF6B9" d="M195.8,159.5c4.5,0,4.5-7,0-7C191.3,152.5,191.3,159.5,195.8,159.5L195.8,159.5z"/>
			</g>
			<g>
				<path fill="#FAF6B9" d="M351.9,57.5c4.5,0,4.5-7,0-7C347.4,50.5,347.4,57.5,351.9,57.5L351.9,57.5z"/>
			</g>
			<g>
				<path fill="#FAF6B9" d="M455.9,109.5c4.5,0,4.5-7,0-7C451.4,102.5,451.4,109.5,455.9,109.5L455.9,109.5z"/>
			</g>
			<g>
				<path fill="#FAF6B9" d="M770.9,50.5c4.5,0,4.5-7,0-7S766.4,50.5,770.9,50.5L770.9,50.5z"/>
			</g>
			<g>
				<path fill="#FAF6B9" d="M804.9,131.5c4.5,0,4.5-7,0-7S800.4,131.5,804.9,131.5L804.9,131.5z"/>
			</g>
			<g>
				<path fill="#FAF6B9" d="M687.9,225.5c4.5,0,4.5-7,0-7S683.4,225.5,687.9,225.5L687.9,225.5z"/>
			</g>
			<g>
				<path fill="#FAF6B9" d="M408.9,218.5c4.5,0,4.5-7,0-7C404.4,211.5,404.4,218.5,408.9,218.5L408.9,218.5z"/>
			</g>
			<g>
				<path fill="#FAF6B9" d="M60.8,253.5c4.5,0,4.5-7,0-7S56.3,253.5,60.8,253.5L60.8,253.5z"/>
			</g>
			<g>
				<path fill="#FAF6B9" d="M389.9,290.5c4.5,0,4.5-7,0-7C385.4,283.5,385.4,290.5,389.9,290.5L389.9,290.5z"/>
			</g>
			<g>
				<path fill="#FAF6B9" d="M302.9,338.5c4.5,0,4.5-7,0-7C298.4,331.5,298.4,338.5,302.9,338.5L302.9,338.5z"/>
			</g>
			<g>
				<path fill="#FAF6B9" d="M620.9,334.5c4.5,0,4.5-7,0-7S616.4,334.5,620.9,334.5L620.9,334.5z"/>
			</g>
		</g>
	</g>
	<g>
		<linearGradient id="SVGID_2_" gradientUnits="userSpaceOnUse" x1="583.9973" y1="229.969" x2="581.8141" y2="340.2182">
			<stop  offset="0" style="stop-color:#FFFFFF"/>
			<stop  offset="1" style="stop-color:#F1729E;stop-opacity:0"/>
		</linearGradient>
		<path fill="url(#SVGID_2_)" d="M347.7,336.1l468.2,9.5c0,0-24.2-28.8-32.5-32.9c-8.3-4.1-39.3,9.7-39.3,9.7s-0.7-35.8-12.4-42.1
			c-11.7-6.2-34.3,0-34.3,0s-15.3-38.6-28.4-46.9c-13.1-8.3-70.2-6.2-87.2,4.1C564.9,247.9,529,292,529,292s-4.8-13.1-17.2-15.9
			c-12.4-2.8-41.4,30.3-41.4,30.3s-10.3-8.3-22.7-9S428.4,314,428.4,314S419.4,300.3,347.7,336.1z"/>
		<linearGradient id="SVGID_3_" gradientUnits="userSpaceOnUse" x1="598.493" y1="97.0486" x2="599.7802" y2="174.2803">
			<stop  offset="0" style="stop-color:#FFFFFF"/>
			<stop  offset="1" style="stop-color:#F1729E;stop-opacity:0"/>
		</linearGradient>
		<path fill="url(#SVGID_3_)" d="M460.3,178.3l279-5.1c0,0-48.5-18.7-66.5-10.3c0,0-10-18-22.4-20.6c-12.4-2.6-22.7,8.4-22.7,8.4
			s-8.1-26.5-15.3-27.1c-7.2-0.6-14.5,3.3-14.5,3.3s-13.4-20.6-31.4-25.1c-18-4.5-55.3,43.8-55.3,43.8s-7.7-3.2-21.9-1.3
			S460.3,178.3,460.3,178.3z"/>
		<linearGradient id="SVGID_4_" gradientUnits="userSpaceOnUse" x1="198.2348" y1="217.6606" x2="198.2348" y2="273.631">
			<stop  offset="0" style="stop-color:#FFFFFF"/>
			<stop  offset="1" style="stop-color:#F1729E;stop-opacity:0"/>
		</linearGradient>
		<path fill="url(#SVGID_4_)" d="M331.2,271l-265.9,7.3c0,0,23.7-18.3,38.9-13.4c0,0,9.9-20.8,20.7-23.1s29.8,9.1,29.8,9.1
			s6.1-26.2,18.3-31c12.2-4.9,43,20.1,43,20.1s8.1-8.5,15.4-8.5s31,30.8,31,30.8S274,248.5,331.2,271z"/>
	</g>
	<linearGradient id="SVGID_5_" gradientUnits="userSpaceOnUse" x1="420.945" y1="408" x2="420.945" y2="190.9785">
		<stop  offset="0" style="stop-color:#533494"/>
		<stop  offset="1" style="stop-color:#F1729E"/>
	</linearGradient>
	<path opacity="0.5" fill="url(#SVGID_5_)" d="M0,500V340c0,0,38.7-23.3,73-24.1C107.3,315,200.6,398,200.6,398s34.4-20,62.4-19
		s139,51,139,51s51-36,71-39s48,16.9,48,16.9s84-58.8,105-62.4s47,22.4,47,22.4s59.3-35,75.7-35c16.4,0,33.9,4,33.9,4
		s35.6-36.7,42-39.4c6.4-2.6,17.3,8.4,17.3,8.4v194H0z"/>
	<g>
		<polygon fill="#313C50" points="216.5,0 230,512.6 246.5,512.6 231.5,0 		"/>
	</g>
	<g>
		<polygon fill="#313C50" points="729,0 742.9,418.9 739.7,513.4 766.5,513.4 768.3,403.4 749.7,0 		"/>
	</g>
	<linearGradient id="SVGID_6_" gradientUnits="userSpaceOnUse" x1="420.945" y1="603.4327" x2="420.945" y2="417.9945">
		<stop  offset="0" style="stop-color:#533494"/>
		<stop  offset="1" style="stop-color:#F1729E"/>
	</linearGradient>
	<rect y="469" fill="url(#SVGID_6_)" width="841.9" height="126.2"/>
	<linearGradient id="SVGID_7_" gradientUnits="userSpaceOnUse" x1="755.7557" y1="470.4406" x2="841.7557" y2="498.4406">
		<stop  offset="0" style="stop-color:#533494"/>
		<stop  offset="1" style="stop-color:#92278F;stop-opacity:0"/>
	</linearGradient>
	<polygon fill="url(#SVGID_7_)" points="741.2,469 841.9,506.6 841.9,490.4 767.3,467.9 	"/>
	<g>
		<polygon fill="#434A6E" points="22.9,0 33.4,532.6 57.4,532.6 40.1,0 		"/>
		<polygon fill="#313C50" points="30.5,0 40.1,406 45.5,532.6 33.4,532.6 22.9,0 		"/>
	</g>
	<g>
		<polygon fill="#434A6E" points="114.4,0 105,417.1 109.7,556.6 65.8,556.6 78.3,278.3 84.6,0 		"/>
		<polygon fill="#313C50" points="101.2,0 84.6,0 78.3,278.3 65.8,556.6 84.5,556.6 84.5,471.3 		"/>
	</g>
	<linearGradient id="SVGID_8_" gradientUnits="userSpaceOnUse" x1="235.3402" y1="467.3301" x2="58.6736" y2="569.9968">
		<stop  offset="0" style="stop-color:#533494"/>
		<stop  offset="1" style="stop-color:#92278F;stop-opacity:0"/>
	</linearGradient>
	<polygon fill="url(#SVGID_8_)" points="245.2,469 30.3,595.3 0,595.3 228.8,469 	"/>
	<linearGradient id="SVGID_9_" gradientUnits="userSpaceOnUse" x1="598.5934" y1="512.9777" x2="801.9268" y2="592.9777">
		<stop  offset="0" style="stop-color:#533494"/>
		<stop  offset="1" style="stop-color:#92278F;stop-opacity:0"/>
	</linearGradient>
	<polygon fill="url(#SVGID_9_)" points="568.6,513.4 773.7,595.3 841.9,595.3 604.6,513.4 	"/>
	<linearGradient id="SVGID_10_" gradientUnits="userSpaceOnUse" x1="566.3709" y1="493.708" x2="799.0628" y2="585.2589">
		<stop  offset="0" style="stop-color:#533494"/>
		<stop  offset="1" style="stop-color:#92278F;stop-opacity:0"/>
	</linearGradient>
	<polygon fill="url(#SVGID_10_)" points="534.5,488 812.3,595.3 841.9,595.3 551,488 	"/>
	<g>
		<polygon fill="#434A6E" points="521,0 534.5,488 551,488 536,0 		"/>
		<polygon fill="#313C50" points="536,0 527.9,0 541.9,488 551,488 		"/>
	</g>
	<g>
		<polygon fill="#434A6E" points="613.6,0 604.6,513.4 568.6,513.4 595.1,0 		"/>
		<polygon fill="#313C50" points="613.6,0 606,0 591.1,451 586,512.6 604.6,513.4 		"/>
	</g>
	<g>
		<polygon fill="#313C50" points="715.7,0 703.7,30.1 658.7,63.1 670.7,87.1 715.7,43.6 724.7,0 		"/>
		<polygon fill="#F4C4DA" points="719.7,0 708.6,35 662.3,70.4 658.7,63.1 703.7,30.1 715.7,0 		"/>
		<polygon fill="#434A6E" points="637.7,0 659.7,406.2 654.7,556.6 697.4,556.6 700.2,381.5 670.7,0 		"/>
		<polygon fill="#313C50" points="670.7,0 658.7,0 680.6,422 680.6,556.6 697.4,556.6 700.2,381.5 		"/>
	</g>
	<g>
		<polygon fill="#313C50" points="153.8,0 161,18.1 188,37.9 180.8,52.3 153.8,26.2 148.4,0 		"/>
		<polygon fill="#F4C4DA" points="151.4,0 158,21 185.8,42.3 188,37.9 161,18.1 153.8,0 		"/>
		<polygon fill="#434A6E" points="200.6,0 187.4,244 181,513.4 155.3,513.4 163,229.2 180.8,0 		"/>
		<polygon fill="#313C50" points="180.8,0 188,0 174.9,253.5 165.5,513.4 155.3,513.4 163,229.2 		"/>
	</g>
	<g>
		<polygon fill="#434A6E" points="782.6,0 797.6,463.6 797.6,520.6 824.6,520.6 824.6,345.1 803.6,0 		"/>
		<polygon fill="#313C50" points="803.6,0 794,0 810,362 810,520.6 824.6,520.6 824.6,345.1 		"/>
	</g>
	<path fill="#FAF6B9" d="M379.7,96c0,0-24.3-21.1-37-22.2C330,72.7,287.8,84,279.1,102c-5.3,11-8.7,53.1,3.3,72.7
		c10.7,17.3,58.7,24.7,71.3,22.7c12.7-2,36.7-39.3,36.7-39.3s-38.7,21.3-42.7,22s-34-3.3-42-11.3c-10.3-10.3-11.5-50.1-6.8-60.8
		c4.1-9.3,33.5-19.6,40.2-20.8C345.8,86,379.7,96,379.7,96z"/>
	<g>
		<linearGradient id="SVGID_11_" gradientUnits="userSpaceOnUse" x1="369.4463" y1="588.4955" x2="369.4463" y2="595.3433">
			<stop  offset="0" style="stop-color:#FFFFFF"/>
			<stop  offset="1" style="stop-color:#F1729E;stop-opacity:0"/>
		</linearGradient>
		<path fill="url(#SVGID_11_)" d="M372.9,595.2c4.1-3.2,6.8-5.5,6.8-5.5s-10.2,3-20.6,5.5H372.9z"/>
		<linearGradient id="SVGID_12_" gradientUnits="userSpaceOnUse" x1="332.3591" y1="453.6009" x2="332.3591" y2="618.2108">
			<stop  offset="0" style="stop-color:#FFFFFF"/>
			<stop  offset="1" style="stop-color:#F1729E;stop-opacity:0"/>
		</linearGradient>
		<path fill="url(#SVGID_12_)" d="M353.8,488.3c-12.7-2-60.7,5.3-71.3,22.7c-12,19.5-8.7,61.6-3.3,72.7c2,4.2,6,8.1,10.9,11.5h37.9
			c-11.2-4-26.2-11-29-17.4c-4.7-10.7-3.5-50.4,6.8-60.8c8-8,38-12,42-11.3s42.7,22,42.7,22S366.4,490.3,353.8,488.3z"/>
	</g>
	<linearGradient id="SVGID_13_" gradientUnits="userSpaceOnUse" x1="159.5595" y1="477.0988" x2="159.5595" y2="246.0325">
		<stop  offset="0" style="stop-color:#533494"/>
		<stop  offset="1" style="stop-color:#F1729E"/>
	</linearGradient>
	<path fill="url(#SVGID_13_)" d="M0,595.2V436.6c0,0,19.4-25.3,45.5-17s24.3,48.3,24.3,48.3s22.8-38.2,44.6-22s18.7,66.7,18.7,66.7
		s17.1-21.7,38.5-18.1c21.5,3.6,16.3,44.1,16.3,44.1s32.3-22,43.4-6.5c11.2,15.5,15,35,15,35s21.7-42.6,72.7,28.2L0,595.2z"/>
	<linearGradient id="SVGID_14_" gradientUnits="userSpaceOnUse" x1="159.5595" y1="585.018" x2="159.5595" y2="399.1019">
		<stop  offset="0" style="stop-color:#533494"/>
		<stop  offset="1" style="stop-color:#F1729E"/>
	</linearGradient>
	<path fill="url(#SVGID_14_)" d="M0,595.2V490.4c0,0,19.4-16.7,45.5-11.2S69.8,511,69.8,511s22.8-25.2,44.6-14.5
		s18.7,44.1,18.7,44.1s17.1-14.4,38.5-12s16.3,29.2,16.3,29.2s32.3-14.5,43.4-4.3c11.2,10.2,15,23.1,15,23.1s21.7-28.2,72.7,18.6
		L0,595.2z"/>
	
		<linearGradient id="SVGID_15_" gradientUnits="userSpaceOnUse" x1="617.1438" y1="541.5202" x2="617.1438" y2="355.6041" gradientTransform="matrix(-1 0 0 1 1299.4742 0)">
		<stop  offset="0" style="stop-color:#533494"/>
		<stop  offset="1" style="stop-color:#F1729E"/>
	</linearGradient>
	<path fill="url(#SVGID_15_)" d="M841.9,595.2V490.4c0,0-19.4-16.7-45.5-11.2S772.1,511,772.1,511s-22.8-25.2-44.6-14.5
		s-18.7,44.1-18.7,44.1s-17.1-14.4-38.5-12s-16.3,29.2-16.3,29.2s-32.3-14.5-43.4-4.3c-11.2,10.2-15,23.1-15,23.1
		s-21.7-28.2-72.7,18.6L841.9,595.2z"/>
</g>
</svg>
