<svg id="Layer_2" data-name="Layer 2" xmlns="http://www.w3.org/2000/svg" viewBox="0 0 2056 2056"><defs><style>.cls-1{fill:#56272c;}.cls-1,.cls-3,.cls-5{stroke:#000;stroke-width:8px;}.cls-1,.cls-3{stroke-miterlimit:1;}.cls-2{fill:#a2272c;}.cls-3,.cls-5{fill:none;}.cls-4{fill:#699db1;}.cls-5{stroke-miterlimit:10;}.cls-6{fill:#786631;}.cls-7{fill:#fbc431;}</style></defs><g id="Layer_1" data-name="Layer 1"><rect class="cls-1" x="4" y="4" width="2048" height="2048"/><path class="cls-2" d="M1194.06,243.16a440.43,440.43,0,0,0-314,129.16A428.9,428.9,0,0,0,753.84,677.06l-.38,17.8-.13,61.77-187.73-.39.13-63.87.38-17.79A617.2,617.2,0,0,1,747.47,238.39,627.76,627.76,0,0,1,1194.63,54.2h0a629.3,629.3,0,0,1,446.91,186.24c211.3,211,240.38,544.47,68.8,789.18l-247.42-.52L1521,965.36c154.89-168.05,149.6-429.27-12-590.84a441.91,441.91,0,0,0-314.3-130.66h0Z" transform="translate(4 4)"/><path class="cls-3" d="M1194.06,243.16a440.43,440.43,0,0,0-314,129.16A428.9,428.9,0,0,0,753.84,677.06l-.38,17.8-.13,61.77-187.73-.39.13-63.87.38-17.79A617.2,617.2,0,0,1,747.47,238.39a632.09,632.09,0,0,1,894.07,2.05c211.3,211,240.38,544.47,68.8,789.18l-247.42-.52L1521,965.36c154.89-168.05,149.6-429.27-12-590.84a441.91,441.91,0,0,0-314.3-130.66Z" transform="translate(4 4)"/><path class="cls-4" d="M564.68,945.21l-153.89-.5L408.47,1811l782,1.47a441.63,441.63,0,0,0,314.84-129.69c162.63-160.75,169.09-422.29,14.58-591l-57.81-63.63,247.41.52c170.31,245.1,140.08,578-71.56,788a630.67,630.67,0,0,1-447.85,184.54l-969.72-1.86,3.28-1243.75,341.46.72Z" transform="translate(4 4)"/><path class="cls-5" d="M564.68,945.21l-153.89-.5L408.47,1811l782,1.47a441.63,441.63,0,0,0,314.84-129.69c162.63-160.75,169.09-422.29,14.58-591l-57.81-63.63,247.41.52c170.31,245.1,140.08,578-71.56,788a630.67,630.67,0,0,1-447.85,184.54l-969.72-1.86,3.28-1243.75,341.46.72Z" transform="translate(4 4)"/><path class="cls-6" d="M919.16,1111.19l.34-164.72-167.26-.35-1.46,704.23-187.73-2.13,1.85-891.64,187.73.4,167.26.35.17-81.66a271.18,271.18,0,0,1,272.45-270.06l8.33,0,2.25.18a272.12,272.12,0,0,1,183.75,80.65c104.23,104.68,104.34,274.51.25,379.33l-.69.7a273.35,273.35,0,0,1-193.63,80l-85.19-.36-.51,162.45Zm212.52-491.44a80,80,0,0,0-23.54,56.66l-.17,81.66,85,.18a84.62,84.62,0,0,0,60.26-25.52,79.77,79.77,0,0,0,1.28-112.36l-.87-.88a85.38,85.38,0,0,0-60-25.6l-6.59,0a84.67,84.67,0,0,0-55.4,24.84" transform="translate(4 4)"/><path class="cls-5" d="M919.16,1111.19l.34-164.72-167.26-.35-1.46,704.23-187.73-2.13,1.85-891.64,187.73.4,167.26.35.17-81.66a271.18,271.18,0,0,1,272.45-270.06l8.32,0,2.26.18a272.12,272.12,0,0,1,183.75,80.65c104.23,104.68,104.34,274.51.25,379.33l-.69.7a273.35,273.35,0,0,1-193.63,80l-85.19-.36-.51,162.45Z" transform="translate(4 4)"/><path class="cls-5" d="M1131.68,619.75a80,80,0,0,0-23.54,56.66l-.17,81.66,85,.18a84.62,84.62,0,0,0,60.26-25.52,79.77,79.77,0,0,0,1.28-112.36l-.87-.88a85.38,85.38,0,0,0-60-25.6l-6.59,0a84.67,84.67,0,0,0-55.4,24.84" transform="translate(4 4)"/><path class="cls-7" d="M751.13,1650l441.74,2.32a273.28,273.28,0,0,0,194-80c104.66-104.24,105.48-274.07,1.83-379.33l-1-1a272.88,272.88,0,0,0-193.47-80.68l-86.05-.87h0l-188.6.12.47,189.32,273.1.58a85.4,85.4,0,0,1,60.15,25.77,78.73,78.73,0,0,1,23.31,56.76,79.74,79.74,0,0,1-23.72,56.49,85.87,85.87,0,0,1-60.43,25.69L751,1463.48Z" transform="translate(4 4)"/><path class="cls-5" d="M751.13,1650l441.74,2.32a273.28,273.28,0,0,0,194-80c104.66-104.24,105.48-274.08,1.83-379.33l-1-1a272.88,272.88,0,0,0-193.47-80.68l-86.05-.87-188.6.12.47,189.32,273.1.58a85.4,85.4,0,0,1,60.15,25.77,78.73,78.73,0,0,1,23.31,56.76,79.74,79.74,0,0,1-23.72,56.49,85.87,85.87,0,0,1-60.43,25.69L751,1463.48Z" transform="translate(4 4)"/></g></svg>