<svg id="Layer_2" data-name="Layer 2" xmlns="http://www.w3.org/2000/svg" viewBox="0 0 2055 2055"><defs><style>.cls-1{fill:#56272c;}.cls-1,.cls-3{stroke:#000;stroke-linejoin:round;stroke-width:7px;}.cls-2{fill:#a2272c;}.cls-3{fill:none;}.cls-4{fill:#699db1;}.cls-5{fill:#786631;}.cls-6{fill:#fbc431;}</style></defs><g id="Layer_1" data-name="Layer 1"><rect class="cls-1" x="3.5" y="3.5" width="2048" height="2048"/><path class="cls-2" d="M1194.06,243.16a440.43,440.43,0,0,0-314,129.16A428.9,428.9,0,0,0,753.84,677.06l-.38,17.8-.13,61.77-187.73-.39.13-63.87.38-17.79A617.2,617.2,0,0,1,747.47,238.39,627.76,627.76,0,0,1,1194.63,54.2h0a629.3,629.3,0,0,1,446.91,186.24c211.3,211,240.38,544.47,68.8,789.18l-247.42-.52L1521,965.36c154.89-168.05,149.6-429.27-12-590.84a441.91,441.91,0,0,0-314.3-130.66h0Z" transform="translate(3.44 3.83)"/><path class="cls-3" d="M1194.06,243.16a440.43,440.43,0,0,0-314,129.16A428.9,428.9,0,0,0,753.84,677.06l-.38,17.8-.13,61.77-187.73-.39.13-63.87.38-17.79A617.2,617.2,0,0,1,747.47,238.39a632.09,632.09,0,0,1,894.07,2.05c211.3,211,240.38,544.47,68.8,789.18l-247.42-.52L1521,965.36c154.89-168.05,149.6-429.27-12-590.84a441.91,441.91,0,0,0-314.3-130.66Z" transform="translate(3.44 3.83)"/><path class="cls-4" d="M564.68,945.21l-153.89-.5L408.47,1811l782,1.47a441.63,441.63,0,0,0,314.84-129.69c162.63-160.75,169.09-422.29,14.58-591l-56.55-62.24,246.15-.87c170.31,245.1,140.08,578-71.56,788a630.67,630.67,0,0,1-447.85,184.54l-969.72-1.86,3.28-1243.75,341.46.72Z" transform="translate(3.44 3.83)"/><path class="cls-3" d="M564.68,945.21l-153.89-.5L408.47,1811l782,1.47a441.63,441.63,0,0,0,314.84-129.69c162.63-160.75,169.09-422.29,14.58-591l-56.55-62.24,246.15-.87c170.31,245.1,140.08,578-71.56,788a630.67,630.67,0,0,1-447.85,184.54l-969.72-1.86,3.28-1243.75,341.46.72Z" transform="translate(3.44 3.83)"/><path class="cls-5" d="M921,1110.86l.34-164.72-167.26-.35L752.66,1650l-187.73-2.14,1.85-891.63,187.73.4,167.26.35.17-81.66a271.18,271.18,0,0,1,272.44-270.06l8.33,0,2.26.18a272.16,272.16,0,0,1,183.75,80.65c104.23,104.68,104.34,274.51.25,379.33l-.7.7a273.27,273.27,0,0,1-193.62,80l-85.19-.35-.51,162.45Zm212.52-492.48c-15,15-23.53,36.41-23.54,57.7l-.17,81.66,85,.18a84.72,84.72,0,0,0,60.26-25.52A79.78,79.78,0,0,0,1256.4,620c-.28-.3-.57-.59-.86-.88a85.45,85.45,0,0,0-60-25.61H1189a84.71,84.71,0,0,0-55.4,24.84" transform="translate(3.44 3.83)"/><path class="cls-3" d="M921,1110.86l.34-164.72-167.26-.35L752.66,1650l-187.73-2.14,1.85-891.63,187.73.4,167.26.35.17-81.66a271.18,271.18,0,0,1,272.44-270.06l8.33,0,2.26.18a272.16,272.16,0,0,1,183.75,80.65c104.23,104.68,104.34,274.51.25,379.33l-.7.7a273.27,273.27,0,0,1-193.62,80l-85.19-.35-.51,162.45Z" transform="translate(3.44 3.83)"/><path class="cls-3" d="M1133.56,618.38c-15,15-23.53,36.41-23.54,57.7l-.17,81.66,85,.18a84.72,84.72,0,0,0,60.26-25.52A79.78,79.78,0,0,0,1256.4,620c-.28-.3-.57-.59-.86-.88a85.45,85.45,0,0,0-60-25.61H1189a84.71,84.71,0,0,0-55.4,24.84" transform="translate(3.44 3.83)"/><path class="cls-6" d="M751.13,1650l441.74,2.32a273.28,273.28,0,0,0,194-80c104.66-104.24,105.48-274.07,1.83-379.33l-1-1a272.88,272.88,0,0,0-193.47-80.68l-86.05-.87h0l-188.6.12.47,189.32,273.1.58a85.4,85.4,0,0,1,60.15,25.77,78.73,78.73,0,0,1,23.31,56.76,79.74,79.74,0,0,1-23.72,56.49,85.87,85.87,0,0,1-60.43,25.69l-439.75-1.62Z" transform="translate(3.44 3.83)"/><path class="cls-3" d="M751.13,1650l441.74,2.32a273.28,273.28,0,0,0,194-80c104.66-104.24,105.48-274.08,1.83-379.33l-1-1a272.88,272.88,0,0,0-193.47-80.68l-86.05-.87-188.6.12.47,189.32,273.1.58a85.4,85.4,0,0,1,60.15,25.77,78.73,78.73,0,0,1,23.31,56.76,79.74,79.74,0,0,1-23.72,56.49,85.87,85.87,0,0,1-60.43,25.69l-439.75-1.62Z" transform="translate(3.44 3.83)"/></g></svg>